<?xml version="1.0" encoding="utf-8"?>

<!DOCTYPE svg PUBLIC "-//W3C//DTD SVG 1.0//EN" "http://www.w3.org/TR/2001/REC-SVG-20010904/DTD/svg10.dtd">
<!-- Uploaded to: SVG Repo, www.svgrepo.com, Generator: SVG Repo Mixer Tools -->
<svg version="1.0" id="Layer_1" xmlns="http://www.w3.org/2000/svg" xmlns:xlink="http://www.w3.org/1999/xlink" 
	 width="800px" height="800px" viewBox="0 0 64 64" enable-background="new 0 0 64 64" xml:space="preserve">
<g>
	<g>
		<path fill="#394240" d="M40,56H24c-2.211,0-4,1.789-4,4s1.789,4,4,4h16c2.211,0,4-1.789,4-4S42.211,56,40,56z"/>
		<path fill="#394240" d="M32,0C16.539,0,4,12.539,4,28c0,9.445,4.695,17.781,11.863,22.844C16.438,51.25,17.375,52,20,52
			s21.812,0,24,0s3.559-0.742,4.133-1.148C55.305,45.781,60,37.445,60,28C60,12.539,47.461,0,32,0z M43.891,44H36V28
			c0-2.211-1.789-4-4-4s-4,1.789-4,4v16h-7.891C15.215,40.359,12,34.578,12,28c0-11.047,8.953-20,20-20s20,8.953,20,20
			C52,34.578,48.785,40.359,43.891,44z"/>
	</g>
	<path fill="#F9EBB2" d="M43.891,44H36V28c0-2.211-1.789-4-4-4s-4,1.789-4,4v16h-7.891C15.215,40.359,12,34.578,12,28
		c0-11.047,8.953-20,20-20s20,8.953,20,20C52,34.578,48.785,40.359,43.891,44z"/>
</g>
</svg>