<?xml version="1.0" encoding="utf-8"?>

<!DOCTYPE svg PUBLIC "-//W3C//DTD SVG 1.0//EN" "http://www.w3.org/TR/2001/REC-SVG-20010904/DTD/svg10.dtd">
<!-- Uploaded to: SVG Repo, www.svgrepo.com, Generator: SVG Repo Mixer Tools -->
<svg version="1.0" id="Layer_1" xmlns="http://www.w3.org/2000/svg" xmlns:xlink="http://www.w3.org/1999/xlink" 
	 width="800px" height="800px" viewBox="0 0 64 64" enable-background="new 0 0 64 64" xml:space="preserve">
<g>
	<path fill="#F9EBB2" d="M32,48.001c-14.195,0-21.43-11.734-23.59-15.989C10.574,27.793,17.891,16,32,16
		c14.195,0,21.431,11.734,23.591,15.988C53.427,36.208,46.109,48.001,32,48.001z"/>
	<g>
		<path fill="#394240" d="M63.716,30.516C63.349,29.594,54.45,8,32,8C9.55,8,0.652,29.594,0.285,30.516
			c-0.379,0.953-0.379,2.016,0,2.969C0.652,34.407,9.55,56.001,32,56.001c22.45,0,31.349-21.594,31.716-22.517
			C64.095,32.531,64.095,31.469,63.716,30.516z M32,48.001c-14.195,0-21.43-11.734-23.59-15.989C10.574,27.793,17.891,16,32,16
			c14.195,0,21.431,11.734,23.591,15.988C53.427,36.208,46.109,48.001,32,48.001z"/>
		<circle fill="#394240" cx="32" cy="32" r="8"/>
	</g>
</g>
</svg>