<?xml version="1.0" encoding="utf-8"?>

<!DOCTYPE svg PUBLIC "-//W3C//DTD SVG 1.0//EN" "http://www.w3.org/TR/2001/REC-SVG-20010904/DTD/svg10.dtd">
<!-- Uploaded to: SVG Repo, www.svgrepo.com, Generator: SVG Repo Mixer Tools -->
<svg version="1.0" id="Layer_1" xmlns="http://www.w3.org/2000/svg" xmlns:xlink="http://www.w3.org/1999/xlink" 
	 width="800px" height="800px" viewBox="0 0 64 64" enable-background="new 0 0 64 64" xml:space="preserve">
<g>
	<path fill="#394240" d="M32,0C14.328,0,0,14.328,0,32s14.328,32,32,32s32-14.328,32-32S49.672,0,32,0z M55.641,28h-7.84
		c-0.668-6.676-3.004-12.848-6.551-18.148C48.727,12.98,54.258,19.785,55.641,28z M32,53.043c-4.121-4.68-6.922-10.539-7.738-17.043
		h15.477C38.922,42.504,36.121,48.363,32,53.043z M24.262,28c0.816-6.504,3.617-12.363,7.738-17.043
		c4.121,4.68,6.922,10.539,7.738,17.043H24.262z M22.75,9.852C19.203,15.152,16.867,21.324,16.199,28h-7.84
		C9.742,19.785,15.273,12.98,22.75,9.852z M8.359,36h7.84c0.668,6.676,3.004,12.848,6.551,18.148
		C15.273,51.02,9.742,44.215,8.359,36z M41.25,54.148c3.547-5.301,5.883-11.473,6.551-18.148h7.84
		C54.258,44.215,48.727,51.02,41.25,54.148z"/>
	<g>
		<path fill="#45AAB8" d="M55.641,28c-1.383-8.215-6.914-15.02-14.391-18.148c3.547,5.301,5.883,11.473,6.551,18.148H55.641z"/>
		<path fill="#45AAB8" d="M32,53.043c4.121-4.68,6.922-10.539,7.738-17.043H24.262C25.078,42.504,27.879,48.363,32,53.043z"/>
		<path fill="#45AAB8" d="M24.262,28h15.477C38.922,21.496,36.121,15.637,32,10.957C27.879,15.637,25.078,21.496,24.262,28z"/>
		<path fill="#45AAB8" d="M8.359,28h7.84c0.668-6.676,3.004-12.848,6.551-18.148C15.273,12.98,9.742,19.785,8.359,28z"/>
		<path fill="#45AAB8" d="M8.359,36c1.383,8.215,6.914,15.02,14.391,18.148C19.203,48.848,16.867,42.676,16.199,36H8.359z"/>
		<path fill="#45AAB8" d="M41.25,54.148C48.727,51.02,54.258,44.215,55.641,36h-7.84C47.133,42.676,44.797,48.848,41.25,54.148z"/>
	</g>
</g>
</svg>